<svg xmlns:xlink="http://www.w3.org/1999/xlink" xmlns="http://www.w3.org/2000/svg" width="1053px" height="617px" viewBox="0 0 1053 617" style="overflow: hidden; display: block; width: 1053px; height: 617px;"><defs><path fill="rgb(51,102,153)" stroke="rgb(51,102,153)" d="M 5,-5 L 0,0 L 5,5 Z" fill-opacity="1" stroke-opacity="1" stroke-width="1" stroke-linecap="butt" stroke-linejoin="miter" stroke-miterlimit="10" id="ygc186_0"/></defs><g style="pointer-events:visiblePainted" transform="translate(509.5 333)" image-rendering="auto" shape-rendering="auto"><g><path fill="none" stroke="rgb(51,102,153)" d="M 42.5,-236.1377551020408 L 110.04889909689973,-240.1010833653793" stroke-opacity="1" stroke-width="1" stroke-linecap="butt" stroke-linejoin="miter" stroke-miterlimit="10"/><use xlink:href="#ygc186_0" transform="matrix(-0.748712 0.0439296 -0.0439296 -0.748712 113.263 -240.29)" style="pointer-events: none;"/></g><g><path fill="none" stroke="rgb(51,102,153)" d="M 42.5,-211.42000000000002 L 146.45483517460048,-176.07535604063585" stroke-opacity="1" stroke-width="1" stroke-linecap="butt" stroke-linejoin="miter" stroke-miterlimit="10"/><use xlink:href="#ygc186_0" transform="matrix(-0.710079 -0.241427 0.241427 -0.710079 149.503 -175.039)" style="pointer-events: none;"/></g><g><path fill="none" stroke="rgb(51,102,153)" d="M 18.815789473684205,-193.5 L 93.49008930770545,-117.49223052608554" stroke-opacity="1" stroke-width="1" stroke-linecap="butt" stroke-linejoin="miter" stroke-miterlimit="10"/><use xlink:href="#ygc186_0" transform="matrix(-0.525616 -0.535002 0.535002 -0.525616 95.7465 -115.196)" style="pointer-events: none;"/></g><g><path fill="none" stroke="rgb(51,102,153)" d="M -47.96315789473684,-193.5 L -101.19222108238145,-120.56594707462156" stroke-opacity="1" stroke-width="1" stroke-linecap="butt" stroke-linejoin="miter" stroke-miterlimit="10"/><use xlink:href="#ygc186_0" transform="matrix(0.442139 -0.605816 0.605816 0.442139 -103.09 -117.965)" style="pointer-events: none;"/></g><g><path fill="none" stroke="rgb(51,102,153)" d="M -140.41604938271604,-61.64074074074074 L -182.80352017452418,9.420607351408218" stroke-opacity="1" stroke-width="1" stroke-linecap="butt" stroke-linejoin="miter" stroke-miterlimit="10"/><use xlink:href="#ygc186_0" transform="matrix(0.384209 -0.644115 0.644115 0.384209 -184.453 12.1857)" style="pointer-events: none;"/></g><g><path fill="none" stroke="rgb(51,102,153)" d="M -247.08947368421053,13.5 L -313.4298395270175,-53.546114415602794" stroke-opacity="1" stroke-width="1" stroke-linecap="butt" stroke-linejoin="miter" stroke-miterlimit="10"/><use xlink:href="#ygc186_0" transform="matrix(0.527517 0.533129 -0.533129 0.527517 -315.694 -55.8348)" style="pointer-events: none;"/></g><g><path fill="none" stroke="rgb(51,102,153)" d="M -270.5,34.66201117318436 L -326.59698561724554,18.52237564643495" stroke-opacity="1" stroke-width="1" stroke-linecap="butt" stroke-linejoin="miter" stroke-miterlimit="10"/><use xlink:href="#ygc186_0" transform="matrix(0.720762 0.20737 -0.20737 0.720762 -329.691 17.6322)" style="pointer-events: none;"/></g><g><path fill="none" stroke="rgb(51,102,153)" d="M -270.5,71.03439153439153 L -337.0051967743843,90.9155746971043" stroke-opacity="1" stroke-width="1" stroke-linecap="butt" stroke-linejoin="miter" stroke-miterlimit="10"/><use xlink:href="#ygc186_0" transform="matrix(0.718579 -0.214813 0.214813 0.718579 -340.09 91.8377)" style="pointer-events: none;"/></g><g><path fill="none" stroke="rgb(51,102,153)" d="M -245.61524163568774,91.5 L -301.41306694734874,150.13130862826876" stroke-opacity="1" stroke-width="1" stroke-linecap="butt" stroke-linejoin="miter" stroke-miterlimit="10"/><use xlink:href="#ygc186_0" transform="matrix(0.51704 -0.543296 0.543296 0.51704 -303.633 152.464)" style="pointer-events: none;"/></g><g><path fill="none" stroke="rgb(51,102,153)" d="M -206.8578947368421,91.5 L -204.339734290551,151.30631059941294" stroke-opacity="1" stroke-width="1" stroke-linecap="butt" stroke-linejoin="miter" stroke-miterlimit="10"/><use xlink:href="#ygc186_0" transform="matrix(-0.031551 -0.749336 0.749336 -0.031551 -204.204 154.523)" style="pointer-events: none;"/></g><g><path fill="none" stroke="rgb(51,102,153)" d="M -170.18421052631578,91.5 L -104.38936743385052,158.4697510048307" stroke-opacity="1" stroke-width="1" stroke-linecap="butt" stroke-linejoin="miter" stroke-miterlimit="10"/><use xlink:href="#ygc186_0" transform="matrix(-0.525616 -0.535002 0.535002 -0.525616 -102.133 160.766)" style="pointer-events: none;"/></g><g><path fill="none" stroke="rgb(51,102,153)" d="M -146.5,71.03439153439153 L -79.9948032256157,90.91557469710429" stroke-opacity="1" stroke-width="1" stroke-linecap="butt" stroke-linejoin="miter" stroke-miterlimit="10"/><use xlink:href="#ygc186_0" transform="matrix(-0.718579 -0.214813 0.214813 -0.718579 -76.91 91.8377)" style="pointer-events: none;"/></g><g><path fill="none" stroke="rgb(51,102,153)" d="M -146.5,25.64589665653496 L 79.42375884908435,-72.20861895439064" stroke-opacity="1" stroke-width="1" stroke-linecap="butt" stroke-linejoin="miter" stroke-miterlimit="10"/><use xlink:href="#ygc186_0" transform="matrix(-0.688218 0.298088 -0.298088 -0.688218 82.3782 -73.4883)" style="pointer-events: none;"/></g><g><path fill="none" stroke="rgb(51,102,153)" d="M 145.93795936013834,-67.00129701686122 L 219.84019817413014,-0.1855742535261924" stroke-opacity="1" stroke-width="1" stroke-linecap="butt" stroke-linejoin="miter" stroke-miterlimit="10"/><use xlink:href="#ygc186_0" transform="matrix(-0.556332 -0.502985 0.502985 -0.556332 222.228 1.97369)" style="pointer-events: none;"/></g><g><path fill="none" stroke="rgb(51,102,153)" d="M 234.325,81 L 199.06583368424742,123.73838341303342" stroke-opacity="1" stroke-width="1" stroke-linecap="butt" stroke-linejoin="miter" stroke-miterlimit="10"/><use xlink:href="#ygc186_0" transform="matrix(0.477287 -0.57853 0.57853 0.477287 197.017 126.222)" style="pointer-events: none;"/></g><g><path fill="none" stroke="rgb(51,102,153)" d="M 320.125,81 L 387.13530440923984,129.73476684308352" stroke-opacity="1" stroke-width="1" stroke-linecap="butt" stroke-linejoin="miter" stroke-miterlimit="10"/><use xlink:href="#ygc186_0" transform="matrix(-0.606552 -0.441129 0.441129 -0.606552 389.739 131.628)" style="pointer-events: none;"/></g><g><path fill="none" stroke="rgb(51,102,153)" d="M 277.225,81 L 287.68232652666626,119.02664191515004" stroke-opacity="1" stroke-width="1" stroke-linecap="butt" stroke-linejoin="miter" stroke-miterlimit="10"/><use xlink:href="#ygc186_0" transform="matrix(-0.198867 -0.723154 0.723154 -0.198867 288.536 122.131)" style="pointer-events: none;"/></g><g><path d="M -81.5,-271.5 L 42.5,-271.5 L 42.5,-193.5 L -81.5,-193.5 Z" stroke="rgb(0,0,0)" stroke-opacity="1" stroke-width="1" stroke-linecap="butt" stroke-linejoin="miter" stroke-miterlimit="10" fill="rgb(255,255,255)" fill-opacity="1"/></g><g><path d="M -202.5,234 C -236.7364,234 -264.5,216.5358 -264.5,195 C -264.5,173.4642 -236.7364,156 -202.5,156 C -168.2636,156 -140.5,173.4642 -140.5,195 C -140.5,216.5358 -168.2636,234 -202.5,234 Z" stroke="rgb(0,0,0)" stroke-opacity="1" stroke-width="1" stroke-linecap="butt" stroke-linejoin="miter" stroke-miterlimit="10" fill="rgb(255,255,255)" fill-opacity="1"/></g><g><path d="M 120.5,-129 L 182.5,-90 L 120.5,-51 L 58.5,-90 Z" stroke="rgb(0,0,0)" stroke-opacity="1" stroke-width="1" stroke-linecap="butt" stroke-linejoin="miter" stroke-miterlimit="10" fill="rgb(255,255,255)" fill-opacity="1"/></g><g><path d="M 204.5,3 L 328.5,3 L 328.5,81 L 204.5,81 Z" stroke="rgb(0,0,0)" stroke-opacity="1" stroke-width="1" stroke-linecap="butt" stroke-linejoin="miter" stroke-miterlimit="10" fill="rgb(255,255,255)" fill-opacity="1"/></g><g><path d="M -270.5,13.5 L -146.5,13.5 L -146.5,91.5 L -270.5,91.5 Z" stroke="rgb(0,0,0)" stroke-opacity="1" stroke-width="1" stroke-linecap="butt" stroke-linejoin="miter" stroke-miterlimit="10" fill="rgb(255,255,255)" fill-opacity="1"/></g><g><path d="M -123.5,-129 L -61.5,-90 L -123.5,-51 L -185.5,-90 Z" stroke="rgb(0,0,0)" stroke-opacity="1" stroke-width="1" stroke-linecap="butt" stroke-linejoin="miter" stroke-miterlimit="10" fill="rgb(255,255,255)" fill-opacity="1"/></g><g><path d="M 431.5,201 C 397.2636,201 369.5,183.5358 369.5,162 C 369.5,140.4642 397.2636,123 431.5,123 C 465.7364,123 493.5,140.4642 493.5,162 C 493.5,183.5358 465.7364,201 431.5,201 Z" stroke="rgb(0,0,0)" stroke-opacity="1" stroke-width="1" stroke-linecap="butt" stroke-linejoin="miter" stroke-miterlimit="10" fill="rgb(255,255,255)" fill-opacity="1"/></g><g><path d="M 299.5,201 C 265.2636,201 237.5,183.5358 237.5,162 C 237.5,140.4642 265.2636,123 299.5,123 C 333.7364,123 361.5,140.4642 361.5,162 C 361.5,183.5358 333.7364,201 299.5,201 Z" stroke="rgb(0,0,0)" stroke-opacity="1" stroke-width="1" stroke-linecap="butt" stroke-linejoin="miter" stroke-miterlimit="10" fill="rgb(255,255,255)" fill-opacity="1"/></g><g><path d="M 167.5,201 C 133.2636,201 105.5,183.5358 105.5,162 C 105.5,140.4642 133.2636,123 167.5,123 C 201.7364,123 229.5,140.4642 229.5,162 C 229.5,183.5358 201.7364,201 167.5,201 Z" stroke="rgb(0,0,0)" stroke-opacity="1" stroke-width="1" stroke-linecap="butt" stroke-linejoin="miter" stroke-miterlimit="10" fill="rgb(255,255,255)" fill-opacity="1"/></g><g><path d="M 205.5,-117 C 171.2636,-117 143.5,-134.4642 143.5,-156 C 143.5,-177.5358 171.2636,-195 205.5,-195 C 239.7364,-195 267.5,-177.5358 267.5,-156 C 267.5,-134.4642 239.7364,-117 205.5,-117 Z" stroke="rgb(0,0,0)" stroke-opacity="1" stroke-width="1" stroke-linecap="butt" stroke-linejoin="miter" stroke-miterlimit="10" fill="rgb(255,255,255)" fill-opacity="1"/></g><g><path d="M 176.5,-205 C 142.2636,-205 114.5,-222.4642 114.5,-244 C 114.5,-265.5358 142.2636,-283 176.5,-283 C 210.7364,-283 238.5,-265.5358 238.5,-244 C 238.5,-222.4642 210.7364,-205 176.5,-205 Z" stroke="rgb(0,0,0)" stroke-opacity="1" stroke-width="1" stroke-linecap="butt" stroke-linejoin="miter" stroke-miterlimit="10" fill="rgb(255,255,255)" fill-opacity="1"/></g><g><path d="M -68.5,234 C -102.7364,234 -130.5,216.5358 -130.5,195 C -130.5,173.4642 -102.7364,156 -68.5,156 C -34.2636,156 -6.5,173.4642 -6.5,195 C -6.5,216.5358 -34.2636,234 -68.5,234 Z" stroke="rgb(0,0,0)" stroke-opacity="1" stroke-width="1" stroke-linecap="butt" stroke-linejoin="miter" stroke-miterlimit="10" fill="rgb(255,255,255)" fill-opacity="1"/></g><g><path d="M -336.5,226 C -370.7364,226 -398.5,208.5358 -398.5,187 C -398.5,165.4642 -370.7364,148 -336.5,148 C -302.2636,148 -274.5,165.4642 -274.5,187 C -274.5,208.5358 -302.2636,226 -336.5,226 Z" stroke="rgb(0,0,0)" stroke-opacity="1" stroke-width="1" stroke-linecap="butt" stroke-linejoin="miter" stroke-miterlimit="10" fill="rgb(255,255,255)" fill-opacity="1"/></g><g><path d="M -397.5,148 C -431.7364,148 -459.5,130.5358 -459.5,109 C -459.5,87.4642 -431.7364,70 -397.5,70 C -363.2636,70 -335.5,87.4642 -335.5,109 C -335.5,130.5358 -363.2636,148 -397.5,148 Z" stroke="rgb(0,0,0)" stroke-opacity="1" stroke-width="1" stroke-linecap="butt" stroke-linejoin="miter" stroke-miterlimit="10" fill="rgb(255,255,255)" fill-opacity="1"/></g><g><path d="M -387.5,40 C -421.7364,40 -449.5,22.535800000000002 -449.5,1 C -449.5,-20.535800000000002 -421.7364,-38 -387.5,-38 C -353.2636,-38 -325.5,-20.535800000000002 -325.5,1 C -325.5,22.535800000000002 -353.2636,40 -387.5,40 Z" stroke="rgb(0,0,0)" stroke-opacity="1" stroke-width="1" stroke-linecap="butt" stroke-linejoin="miter" stroke-miterlimit="10" fill="rgb(255,255,255)" fill-opacity="1"/></g><g><path d="M -19.5,148 C -53.7364,148 -81.5,130.5358 -81.5,109 C -81.5,87.4642 -53.7364,70 -19.5,70 C 14.736400000000003,70 42.5,87.4642 42.5,109 C 42.5,130.5358 14.736400000000003,148 -19.5,148 Z" stroke="rgb(0,0,0)" stroke-opacity="1" stroke-width="1" stroke-linecap="butt" stroke-linejoin="miter" stroke-miterlimit="10" fill="rgb(255,255,255)" fill-opacity="1"/></g><g><path d="M -349.5,-51 C -383.7364,-51 -411.5,-68.4642 -411.5,-90 C -411.5,-111.5358 -383.7364,-129 -349.5,-129 C -315.2636,-129 -287.5,-111.5358 -287.5,-90 C -287.5,-68.4642 -315.2636,-51 -349.5,-51 Z" stroke="rgb(0,0,0)" stroke-opacity="1" stroke-width="1" stroke-linecap="butt" stroke-linejoin="miter" stroke-miterlimit="10" fill="rgb(255,255,255)" fill-opacity="1"/></g><g transform="matrix(0.7008217572776733 0.7133364315147754 -0.7133364315147754 0.7008217572776733 35.29651747334012 -169.59049158928846)"><text font-family="Arial" font-size="12px" font-style="normal" font-weight="normal" text-anchor="start" fill="rgb(0,0,0)" fill-opacity="1" dy="0.91015625em" transform="translate(0 0)">m</text></g><g transform="matrix(0.589519052901383 -0.8077544715235295 0.8077544715235295 0.589519052901383 -93.59434767883019 -162.5700453203326)"><text font-family="Arial" font-size="12px" font-style="normal" font-weight="normal" text-anchor="start" fill="rgb(0,0,0)" fill-opacity="1" dy="0.91015625em" transform="translate(0 0)">1</text></g><g transform="matrix(0.5122783012082036 -0.8588195049666938 0.8588195049666938 0.5122783012082036 -187.31489149563026 -19.37340223380692)"><text font-family="Arial" font-size="12px" font-style="normal" font-weight="normal" text-anchor="start" fill="rgb(0,0,0)" fill-opacity="1" dy="0.91015625em" transform="translate(0 0)">n</text></g><g transform="matrix(0.9176234485829148 -0.3974508857843932 0.3974508857843932 0.9176234485829148 -51.295058312669035 -10.141428150165313)"><text font-family="Arial" font-size="12px" font-style="normal" font-weight="normal" text-anchor="start" fill="rgb(0,0,0)" fill-opacity="1" dy="0.91015625em" transform="translate(0 0)">m</text></g><g transform="matrix(0.741776460948683 0.6706472112686721 -0.6706472112686721 0.741776460948683 178.12975348754318 -31.155812080235894)"><text font-family="Arial" font-size="12px" font-style="normal" font-weight="normal" text-anchor="start" fill="rgb(0,0,0)" fill-opacity="1" dy="0.91015625em" transform="translate(0 0)">n</text></g><g transform="translate(-81.5 -271.5)"><text font-family="Arial" font-size="12px" font-style="normal" font-weight="normal" text-anchor="middle" fill="rgb(0,0,0)" fill-opacity="1" transform="translate(62 32.1875)"><tspan dy="0.91015625em" x="0">Genre</tspan></text></g><g transform="translate(-264.5 156)"><text font-family="Arial" font-size="12px" font-style="normal" font-weight="normal" text-anchor="middle" fill="rgb(0,0,0)" fill-opacity="1" transform="translate(62 32.1875)"><tspan dy="0.91015625em" x="0">bookPages</tspan></text></g><g transform="translate(58.5 -129)"><text font-family="Arial" font-size="12px" font-style="normal" font-weight="normal" text-anchor="middle" fill="rgb(0,0,0)" fill-opacity="1" transform="translate(62 32.1875)"><tspan dy="0.91015625em" x="0">have</tspan></text></g><g transform="translate(204.5 3)"><text font-family="Arial" font-size="12px" font-style="normal" font-weight="normal" text-anchor="middle" fill="rgb(0,0,0)" fill-opacity="1" transform="translate(62 32.1875)"><tspan dy="0.91015625em" x="0">BookGenre</tspan></text></g><g transform="translate(-270.5 13.5)"><text font-family="Arial" font-size="12px" font-style="normal" font-weight="normal" text-anchor="middle" fill="rgb(0,0,0)" fill-opacity="1" transform="translate(62 32.1875)"><tspan dy="0.91015625em" x="0">Book</tspan></text></g><g transform="translate(-185.5 -129)"><text font-family="Arial" font-size="12px" font-style="normal" font-weight="normal" text-anchor="middle" fill="rgb(0,0,0)" fill-opacity="1" transform="translate(62 32.1875)"><tspan dy="0.91015625em" x="0">have</tspan></text></g><g transform="translate(369.5 123)"><text font-family="Arial" font-size="12px" font-style="normal" font-weight="normal" text-decoration="underline" text-anchor="middle" fill="rgb(0,0,0)" fill-opacity="1" transform="translate(62 32.1875)"><tspan dy="0.91015625em" x="0">bookGenreGenreId</tspan></text></g><g transform="translate(237.5 123)"><text font-family="Arial" font-size="12px" font-style="normal" font-weight="normal" text-decoration="underline" text-anchor="middle" fill="rgb(0,0,0)" fill-opacity="1" transform="translate(62 32.1875)"><tspan dy="0.91015625em" x="0">bookGenreBookId</tspan></text></g><g transform="translate(105.5 123)"><text font-family="Arial" font-size="12px" font-style="normal" font-weight="normal" text-decoration="underline" text-anchor="middle" fill="rgb(0,0,0)" fill-opacity="1" transform="translate(62 32.1875)"><tspan dy="0.91015625em" x="0">bookGenreId</tspan></text></g><g transform="translate(143.5 -195)"><text font-family="Arial" font-size="12px" font-style="normal" font-weight="normal" text-anchor="middle" fill="rgb(0,0,0)" fill-opacity="1" transform="translate(62 32.1875)"><tspan dy="0.91015625em" x="0">genreType</tspan></text></g><g transform="translate(114.5 -283)"><text font-family="Arial" font-size="12px" font-style="normal" font-weight="normal" text-decoration="underline" text-anchor="middle" fill="rgb(0,0,0)" fill-opacity="1" transform="translate(62 32.1875)"><tspan dy="0.91015625em" x="0">genreId</tspan></text></g><g transform="translate(-130.5 156)"><text font-family="Arial" font-size="12px" font-style="normal" font-weight="normal" text-anchor="middle" fill="rgb(0,0,0)" fill-opacity="1" transform="translate(62 32.1875)"><tspan dy="0.91015625em" x="0">bookPublishDate</tspan></text></g><g transform="translate(-398.5 148)"><text font-family="Arial" font-size="12px" font-style="normal" font-weight="normal" text-anchor="middle" fill="rgb(0,0,0)" fill-opacity="1" transform="translate(62 32.1875)"><tspan dy="0.91015625em" x="0">bookDescription</tspan></text></g><g transform="translate(-459.5 70)"><text font-family="Arial" font-size="12px" font-style="normal" font-weight="normal" text-anchor="middle" fill="rgb(0,0,0)" fill-opacity="1" transform="translate(62 32.1875)"><tspan dy="0.91015625em" x="0">bookAuthor</tspan></text></g><g transform="translate(-449.5 -38)"><text font-family="Arial" font-size="12px" font-style="normal" font-weight="normal" text-decoration="underline" text-anchor="middle" fill="rgb(0,0,0)" fill-opacity="1" transform="translate(62 32.1875)"><tspan dy="0.91015625em" x="0">bookGenreId</tspan></text></g><g transform="translate(-81.5 70)"><text font-family="Arial" font-size="12px" font-style="normal" font-weight="normal" text-anchor="middle" fill="rgb(0,0,0)" fill-opacity="1" transform="translate(62 32.1875)"><tspan dy="0.91015625em" x="0">bookTitle</tspan></text></g><g transform="translate(-411.5 -129)"><text font-family="Arial" font-size="12px" font-style="normal" font-weight="normal" text-decoration="underline" text-anchor="middle" fill="rgb(0,0,0)" fill-opacity="1" transform="translate(62 32.1875)"><tspan dy="0.91015625em" x="0">bookId</tspan></text></g></g></svg>