<svg xmlns:xlink="http://www.w3.org/1999/xlink" xmlns="http://www.w3.org/2000/svg" width="908px" height="567px" viewBox="0 0 908 567" style="overflow: hidden; display: block; width: 908px; height: 567px;"><defs><path fill="rgb(51,102,153)" stroke="rgb(51,102,153)" d="M 5,-5 L 0,0 L 5,5 Z" fill-opacity="1" stroke-opacity="1" stroke-width="1" stroke-linecap="butt" stroke-linejoin="miter" stroke-miterlimit="10" id="ygc201_0"/></defs><g style="pointer-events:visiblePainted" transform="translate(575 326)" image-rendering="auto" shape-rendering="auto"><g><path fill="none" stroke="rgb(51,102,153)" d="M -144,-219.79530201342283 L -99.26195840606582,-232.70628045999445" stroke-opacity="1" stroke-width="1" stroke-linecap="butt" stroke-linejoin="miter" stroke-miterlimit="10"/><use xlink:href="#ygc201_0" transform="matrix(-0.720593 0.207956 -0.207956 -0.720593 -96.1685 -233.599)" style="pointer-events: none;"/></g><g><path fill="none" stroke="rgb(51,102,153)" d="M -144,-194.89597315436242 L -102.86770011269083,-187.44246914793726" stroke-opacity="1" stroke-width="1" stroke-linecap="butt" stroke-linejoin="miter" stroke-miterlimit="10"/><use xlink:href="#ygc201_0" transform="matrix(-0.737982 -0.133728 0.133728 -0.737982 -99.6996 -186.868)" style="pointer-events: none;"/></g><g><path fill="none" stroke="rgb(51,102,153)" d="M -163.02800000000002,-176 L -72.34127089720005,-99.92052927617453" stroke-opacity="1" stroke-width="1" stroke-linecap="butt" stroke-linejoin="miter" stroke-miterlimit="10"/><use xlink:href="#ygc201_0" transform="matrix(-0.574582 -0.482032 0.482032 -0.574582 -69.8746 -97.8512)" style="pointer-events: none;"/></g><g><path fill="none" stroke="rgb(51,102,153)" d="M -26.95954466757007,-62.31420711272173 L 70.13841627108435,16.995171895666584" stroke-opacity="1" stroke-width="1" stroke-linecap="butt" stroke-linejoin="miter" stroke-miterlimit="10"/><use xlink:href="#ygc201_0" transform="matrix(-0.580862 -0.474447 0.474447 -0.580862 72.632 19.0319)" style="pointer-events: none;"/></g><g><path fill="none" stroke="rgb(51,102,153)" d="M -214.98805052919084,-176 L -241.00948445989985,-134.77202669507028" stroke-opacity="1" stroke-width="1" stroke-linecap="butt" stroke-linejoin="miter" stroke-miterlimit="10"/><use xlink:href="#ygc201_0" transform="matrix(0.400305 -0.634237 0.634237 0.400305 -242.728 -132.049)" style="pointer-events: none;"/></g><g><path fill="none" stroke="rgb(51,102,153)" d="M -262.0074670275169,-83.68326057140058 L -305.7912984890095,-37.931742796153216" stroke-opacity="1" stroke-width="1" stroke-linecap="butt" stroke-linejoin="miter" stroke-miterlimit="10"/><use xlink:href="#ygc201_0" transform="matrix(0.51855 -0.541854 0.541854 0.51855 -308.017 -35.6056)" style="pointer-events: none;"/></g><g><path fill="none" stroke="rgb(51,102,153)" d="M -257,-20.86832061068702 L -87.40301496506491,-68.4461007636173" stroke-opacity="1" stroke-width="1" stroke-linecap="butt" stroke-linejoin="miter" stroke-miterlimit="10"/><use xlink:href="#ygc201_0" transform="matrix(-0.722123 0.20258 -0.20258 -0.722123 -84.303 -69.3158)" style="pointer-events: none;"/></g><g><path fill="none" stroke="rgb(51,102,153)" d="M -257,11.296407185628738 L -192.77663489954475,32.25552932919049" stroke-opacity="1" stroke-width="1" stroke-linecap="butt" stroke-linejoin="miter" stroke-miterlimit="10"/><use xlink:href="#ygc201_0" transform="matrix(-0.712993 -0.232683 0.232683 -0.712993 -189.716 33.2544)" style="pointer-events: none;"/></g><g><path fill="none" stroke="rgb(51,102,153)" d="M -275.7270021645022,22.499999999999986 L -201.77728522953416,83.99350992762301" stroke-opacity="1" stroke-width="1" stroke-linecap="butt" stroke-linejoin="miter" stroke-miterlimit="10"/><use xlink:href="#ygc201_0" transform="matrix(-0.576669 -0.479534 0.479534 -0.576669 -199.302 86.0521)" style="pointer-events: none;"/></g><g><path fill="none" stroke="rgb(51,102,153)" d="M -312.08225376262146,22.499999999999986 L -316.0834351925993,77.26454061526408" stroke-opacity="1" stroke-width="1" stroke-linecap="butt" stroke-linejoin="miter" stroke-miterlimit="10"/><use xlink:href="#ygc201_0" transform="matrix(0.0546505 -0.748006 0.748006 0.0546505 -316.318 80.4757)" style="pointer-events: none;"/></g><g><path fill="none" stroke="rgb(51,102,153)" d="M -355.39524765729584,22.5 L -425.50210590085476,66.51441919703474" stroke-opacity="1" stroke-width="1" stroke-linecap="butt" stroke-linejoin="miter" stroke-miterlimit="10"/><use xlink:href="#ygc201_0" transform="matrix(0.635193 -0.398786 0.398786 0.635193 -428.229 68.2264)" style="pointer-events: none;"/></g><g><path fill="none" stroke="rgb(51,102,153)" d="M -363,6.7592592592592595 L -419.03690625500315,20.249625579908177" stroke-opacity="1" stroke-width="1" stroke-linecap="butt" stroke-linejoin="miter" stroke-miterlimit="10"/><use xlink:href="#ygc201_0" transform="matrix(0.729168 -0.17554 0.17554 0.729168 -422.167 21.0032)" style="pointer-events: none;"/></g><g><path fill="none" stroke="rgb(51,102,153)" d="M -363,-20.080841211653485 L -400.4331515163057,-30.02594050510379" stroke-opacity="1" stroke-width="1" stroke-linecap="butt" stroke-linejoin="miter" stroke-miterlimit="10"/><use xlink:href="#ygc201_0" transform="matrix(0.724855 0.192577 -0.192577 0.724855 -403.545 -30.8527)" style="pointer-events: none;"/></g><g><path fill="none" stroke="rgb(51,102,153)" d="M -343.75418994413405,-34.50000000000001 L -383.92379206840906,-68.41678669926992" stroke-opacity="1" stroke-width="1" stroke-linecap="butt" stroke-linejoin="miter" stroke-miterlimit="10"/><use xlink:href="#ygc201_0" transform="matrix(0.573052 0.483851 -0.483851 0.573052 -386.384 -70.4939)" style="pointer-events: none;"/></g><g><path fill="none" stroke="rgb(51,102,153)" d="M 66.25,77 L 50.01812809575035,129.86952563098458" stroke-opacity="1" stroke-width="1" stroke-linecap="butt" stroke-linejoin="miter" stroke-miterlimit="10"/><use xlink:href="#ygc201_0" transform="matrix(0.220122 -0.71697 0.71697 0.220122 49.0732 132.947)" style="pointer-events: none;"/></g><g><path fill="none" stroke="rgb(51,102,153)" d="M 98.25,77 L 143.71340172376702,132.72933114526282" stroke-opacity="1" stroke-width="1" stroke-linecap="butt" stroke-linejoin="miter" stroke-miterlimit="10"/><use xlink:href="#ygc201_0" transform="matrix(-0.474095 -0.581149 0.581149 -0.474095 145.749 135.224)" style="pointer-events: none;"/></g><g><path fill="none" stroke="rgb(51,102,153)" d="M 128,60.80967741935484 L 176.72398270315153,72.12621533750617" stroke-opacity="1" stroke-width="1" stroke-linecap="butt" stroke-linejoin="miter" stroke-miterlimit="10"/><use xlink:href="#ygc201_0" transform="matrix(-0.730554 -0.169677 0.169677 -0.730554 179.86 72.8546)" style="pointer-events: none;"/></g><g><path d="M -250,-233 L -144,-233 L -144,-176 L -250,-176 Z" stroke="rgb(0,0,0)" stroke-opacity="1" stroke-width="1" stroke-linecap="butt" stroke-linejoin="miter" stroke-miterlimit="10" fill="rgb(255,255,255)" fill-opacity="1"/></g><g><path d="M -416,-67 C -445.2666,-67 -469,-79.7623 -469,-95.5 C -469,-111.2377 -445.2666,-124 -416,-124 C -386.7334,-124 -363,-111.2377 -363,-95.5 C -363,-79.7623 -386.7334,-67 -416,-67 Z" stroke="rgb(0,0,0)" stroke-opacity="1" stroke-width="1" stroke-linecap="butt" stroke-linejoin="miter" stroke-miterlimit="10" fill="rgb(255,255,255)" fill-opacity="1"/></g><g><path d="M -48,-108 L 5,-79.5 L -48,-51 L -101,-79.5 Z" stroke="rgb(0,0,0)" stroke-opacity="1" stroke-width="1" stroke-linecap="butt" stroke-linejoin="miter" stroke-miterlimit="10" fill="rgb(255,255,255)" fill-opacity="1"/></g><g><path d="M 22,20 L 128,20 L 128,77 L 22,77 Z" stroke="rgb(0,0,0)" stroke-opacity="1" stroke-width="1" stroke-linecap="butt" stroke-linejoin="miter" stroke-miterlimit="10" fill="rgb(255,255,255)" fill-opacity="1"/></g><g><path d="M -363,-34.5 L -257,-34.5 L -257,22.5 L -363,22.5 Z" stroke="rgb(0,0,0)" stroke-opacity="1" stroke-width="1" stroke-linecap="butt" stroke-linejoin="miter" stroke-miterlimit="10" fill="rgb(255,255,255)" fill-opacity="1"/></g><g><path d="M -472,61.5 C -501.2666,61.5 -525,48.737700000000004 -525,33 C -525,17.2623 -501.2666,4.5 -472,4.5 C -442.7334,4.5 -419,17.2623 -419,33 C -419,48.737700000000004 -442.7334,61.5 -472,61.5 Z" stroke="rgb(0,0,0)" stroke-opacity="1" stroke-width="1" stroke-linecap="butt" stroke-linejoin="miter" stroke-miterlimit="10" fill="rgb(255,255,255)" fill-opacity="1"/></g><g><path d="M -316.5,139 C -345.7666,139 -369.5,126.2377 -369.5,110.5 C -369.5,94.7623 -345.7666,82 -316.5,82 C -287.2334,82 -263.5,94.7623 -263.5,110.5 C -263.5,126.2377 -287.2334,139 -316.5,139 Z" stroke="rgb(0,0,0)" stroke-opacity="1" stroke-width="1" stroke-linecap="butt" stroke-linejoin="miter" stroke-miterlimit="10" fill="rgb(255,255,255)" fill-opacity="1"/></g><g><path d="M -143,77 C -172.2666,77 -196,64.2377 -196,48.5 C -196,32.762299999999996 -172.2666,20 -143,20 C -113.7334,20 -90,32.762299999999996 -90,48.5 C -90,64.2377 -113.7334,77 -143,77 Z" stroke="rgb(0,0,0)" stroke-opacity="1" stroke-width="1" stroke-linecap="butt" stroke-linejoin="miter" stroke-miterlimit="10" fill="rgb(255,255,255)" fill-opacity="1"/></g><g><path d="M -48,-149 C -77.2666,-149 -101,-161.7623 -101,-177.5 C -101,-193.2377 -77.2666,-206 -48,-206 C -18.7334,-206 5,-193.2377 5,-177.5 C 5,-161.7623 -18.7334,-149 -48,-149 Z" stroke="rgb(0,0,0)" stroke-opacity="1" stroke-width="1" stroke-linecap="butt" stroke-linejoin="miter" stroke-miterlimit="10" fill="rgb(255,255,255)" fill-opacity="1"/></g><g><path d="M -48,-219 C -77.2666,-219 -101,-231.7623 -101,-247.5 C -101,-263.2377 -77.2666,-276 -48,-276 C -18.7334,-276 5,-263.2377 5,-247.5 C 5,-231.7623 -18.7334,-219 -48,-219 Z" stroke="rgb(0,0,0)" stroke-opacity="1" stroke-width="1" stroke-linecap="butt" stroke-linejoin="miter" stroke-miterlimit="10" fill="rgb(255,255,255)" fill-opacity="1"/></g><g><path d="M 40,191 C 10.7334,191 -13,178.2377 -13,162.5 C -13,146.7623 10.7334,134 40,134 C 69.2666,134 93,146.7623 93,162.5 C 93,178.2377 69.2666,191 40,191 Z" stroke="rgb(0,0,0)" stroke-opacity="1" stroke-width="1" stroke-linecap="butt" stroke-linejoin="miter" stroke-miterlimit="10" fill="rgb(255,255,255)" fill-opacity="1"/></g><g><path d="M 168,191 C 138.7334,191 115,178.2377 115,162.5 C 115,146.7623 138.7334,134 168,134 C 197.2666,134 221,146.7623 221,162.5 C 221,178.2377 197.2666,191 168,191 Z" stroke="rgb(0,0,0)" stroke-opacity="1" stroke-width="1" stroke-linecap="butt" stroke-linejoin="miter" stroke-miterlimit="10" fill="rgb(255,255,255)" fill-opacity="1"/></g><g><path d="M -197,144 C -226.2666,144 -250,131.2377 -250,115.5 C -250,99.7623 -226.2666,87 -197,87 C -167.7334,87 -144,99.7623 -144,115.5 C -144,131.2377 -167.7334,144 -197,144 Z" stroke="rgb(0,0,0)" stroke-opacity="1" stroke-width="1" stroke-linecap="butt" stroke-linejoin="miter" stroke-miterlimit="10" fill="rgb(255,255,255)" fill-opacity="1"/></g><g><path d="M -431,126 C -460.2666,126 -484,113.2377 -484,97.5 C -484,81.7623 -460.2666,69 -431,69 C -401.7334,69 -378,81.7623 -378,97.5 C -378,113.2377 -401.7334,126 -431,126 Z" stroke="rgb(0,0,0)" stroke-opacity="1" stroke-width="1" stroke-linecap="butt" stroke-linejoin="miter" stroke-miterlimit="10" fill="rgb(255,255,255)" fill-opacity="1"/></g><g><path d="M -458,-3 C -487.2666,-3 -511,-15.7623 -511,-31.5 C -511,-47.237700000000004 -487.2666,-60 -458,-60 C -428.7334,-60 -405,-47.237700000000004 -405,-31.5 C -405,-15.7623 -428.7334,-3 -458,-3 Z" stroke="rgb(0,0,0)" stroke-opacity="1" stroke-width="1" stroke-linecap="butt" stroke-linejoin="miter" stroke-miterlimit="10" fill="rgb(255,255,255)" fill-opacity="1"/></g><g><path d="M -244,-131 L -191,-102.5 L -244,-74 L -297,-102.5 Z" stroke="rgb(0,0,0)" stroke-opacity="1" stroke-width="1" stroke-linecap="butt" stroke-linejoin="miter" stroke-miterlimit="10" fill="rgb(255,255,255)" fill-opacity="1"/></g><g><path d="M 230,113 C 200.7334,113 177,100.2377 177,84.5 C 177,68.7623 200.7334,56 230,56 C 259.2666,56 283,68.7623 283,84.5 C 283,100.2377 259.2666,113 230,113 Z" stroke="rgb(0,0,0)" stroke-opacity="1" stroke-width="1" stroke-linecap="butt" stroke-linejoin="miter" stroke-miterlimit="10" fill="rgb(255,255,255)" fill-opacity="1"/></g><g transform="translate(-250 -233)"><text font-family="Arial" font-size="12px" font-style="normal" font-weight="normal" text-anchor="middle" fill="rgb(0,0,0)" fill-opacity="1" transform="translate(53 21.6875)"><tspan dy="0.91015625em" x="0">Genre</tspan></text></g><g transform="translate(-469 -124)"><text font-family="Arial" font-size="12px" font-style="normal" font-weight="normal" text-decoration="underline" text-anchor="middle" fill="rgb(0,0,0)" fill-opacity="1" transform="translate(53 21.6875)"><tspan dy="0.91015625em" x="0">bookId</tspan></text></g><g transform="translate(-101 -108)"><text font-family="Arial" font-size="12px" font-style="normal" font-weight="normal" text-anchor="middle" fill="rgb(0,0,0)" fill-opacity="1" transform="translate(53 21.6875)"><tspan dy="0.91015625em" x="0">have</tspan></text></g><g transform="translate(22 20)"><text font-family="Arial" font-size="12px" font-style="normal" font-weight="normal" text-anchor="middle" fill="rgb(0,0,0)" fill-opacity="1" transform="translate(53 21.6875)"><tspan dy="0.91015625em" x="0">BookGenre</tspan></text></g><g transform="translate(-363 -34.5)"><text font-family="Arial" font-size="12px" font-style="normal" font-weight="normal" text-anchor="middle" fill="rgb(0,0,0)" fill-opacity="1" transform="translate(53 21.6875)"><tspan dy="0.91015625em" x="0">Book</tspan></text></g><g transform="translate(-525 4.5)"><text font-family="Arial" font-size="12px" font-style="normal" font-weight="normal" text-anchor="middle" fill="rgb(0,0,0)" fill-opacity="1" transform="translate(53 21.6875)"><tspan dy="0.91015625em" x="0">bookAuthor</tspan></text></g><g transform="translate(-369.5 82)"><text font-family="Arial" font-size="12px" font-style="normal" font-weight="normal" text-anchor="middle" fill="rgb(0,0,0)" fill-opacity="1" transform="translate(53 21.6875)"><tspan dy="0.91015625em" x="0">bookPages</tspan></text></g><g transform="translate(-196 20)"><text font-family="Arial" font-size="12px" font-style="normal" font-weight="normal" text-anchor="middle" fill="rgb(0,0,0)" fill-opacity="1" transform="translate(53 21.6875)"><tspan dy="0.91015625em" x="0">bookTitle</tspan></text></g><g transform="translate(-101 -206)"><text font-family="Arial" font-size="12px" font-style="normal" font-weight="normal" text-anchor="middle" fill="rgb(0,0,0)" fill-opacity="1" transform="translate(53 21.6875)"><tspan dy="0.91015625em" x="0">genreType</tspan></text></g><g transform="translate(-101 -276)"><text font-family="Arial" font-size="12px" font-style="normal" font-weight="normal" text-decoration="underline" text-anchor="middle" fill="rgb(0,0,0)" fill-opacity="1" transform="translate(53 21.6875)"><tspan dy="0.91015625em" x="0">genreId</tspan></text></g><g transform="translate(-13 134)"><text font-family="Arial" font-size="12px" font-style="normal" font-weight="normal" text-decoration="underline" text-anchor="middle" fill="rgb(0,0,0)" fill-opacity="1" transform="translate(53 21.6875)"><tspan dy="0.91015625em" x="0">bookGenreId</tspan></text></g><g transform="translate(115 134)"><text font-family="Arial" font-size="12px" font-style="normal" font-weight="normal" text-decoration="underline" text-anchor="middle" fill="rgb(0,0,0)" fill-opacity="1" transform="translate(53 21.6875)"><tspan dy="0.91015625em" x="0">bookGenreBookId</tspan></text></g><g transform="translate(-250 87)"><text font-family="Arial" font-size="12px" font-style="normal" font-weight="normal" text-anchor="middle" fill="rgb(0,0,0)" fill-opacity="1" transform="translate(53 21.6875)"><tspan dy="0.91015625em" x="0">bookPublishDate</tspan></text></g><g transform="translate(-484 69)"><text font-family="Arial" font-size="12px" font-style="normal" font-weight="normal" text-anchor="middle" fill="rgb(0,0,0)" fill-opacity="1" transform="translate(53 21.6875)"><tspan dy="0.91015625em" x="0">bookDescription</tspan></text></g><g transform="translate(-511 -60)"><text font-family="Arial" font-size="12px" font-style="normal" font-weight="normal" text-decoration="underline" text-anchor="middle" fill="rgb(0,0,0)" fill-opacity="1" transform="translate(53 21.6875)"><tspan dy="0.91015625em" x="0">bookGenreId</tspan></text></g><g transform="translate(-297 -131)"><text font-family="Arial" font-size="12px" font-style="normal" font-weight="normal" text-anchor="middle" fill="rgb(0,0,0)" fill-opacity="1" transform="translate(53 21.6875)"><tspan dy="0.91015625em" x="0">have</tspan></text></g><g transform="translate(177 56)"><text font-family="Arial" font-size="12px" font-style="normal" font-weight="normal" text-decoration="underline" text-anchor="middle" fill="rgb(0,0,0)" fill-opacity="1" transform="translate(53 21.6875)"><tspan dy="0.91015625em" x="0">bookGenreGenreId</tspan></text></g></g></svg>