<svg xmlns:xlink="http://www.w3.org/1999/xlink" xmlns="http://www.w3.org/2000/svg" width="1143px" height="702px" viewBox="0 0 1143 702" style="overflow: hidden; display: block; width: 1143px; height: 702px;"><defs><path fill="rgb(51,102,153)" stroke="rgb(51,102,153)" d="M 5,-5 L 0,0 L 5,5 Z" fill-opacity="1" stroke-opacity="1" stroke-width="1" stroke-linecap="butt" stroke-linejoin="miter" stroke-miterlimit="10" id="ygc200_0"/></defs><g style="pointer-events:visiblePainted" transform="translate(430.5 332.5)" image-rendering="auto" shape-rendering="auto"><g><path fill="none" stroke="rgb(51,102,153)" d="M 114.37711929939876,-216.5 L 159.61038426334562,-135.82287757658372" stroke-opacity="1" stroke-width="1" stroke-linecap="butt" stroke-linejoin="miter" stroke-miterlimit="10"/><use xlink:href="#ygc200_0" transform="matrix(-0.366786 -0.654193 0.654193 -0.366786 161.185 -133.014)" style="pointer-events: none;"/></g><g><path fill="none" stroke="rgb(51,102,153)" d="M 159.75,-236.37209944751382 L 258.15509888272527,-216.1474050915062" stroke-opacity="1" stroke-width="1" stroke-linecap="butt" stroke-linejoin="miter" stroke-miterlimit="10"/><use xlink:href="#ygc200_0" transform="matrix(-0.734645 -0.150988 0.150988 -0.734645 261.309 -215.499)" style="pointer-events: none;"/></g><g><path fill="none" stroke="rgb(51,102,153)" d="M 83.49895174770764,-216.5 L 50.355519496303465,-128.125 L 29.0265302702762,-69.0314374881456" stroke-opacity="1" stroke-width="1" stroke-linecap="butt" stroke-linejoin="miter" stroke-miterlimit="10"/><use xlink:href="#ygc200_0" transform="matrix(0.254624 -0.705455 0.705455 0.254624 27.9335 -66.003)" style="pointer-events: none;"/></g><g><path fill="none" stroke="rgb(51,102,153)" d="M 133.67039382514136,-216.5 L 333.6921774348163,-41.856526521269075" stroke-opacity="1" stroke-width="1" stroke-linecap="butt" stroke-linejoin="miter" stroke-miterlimit="10"/><use xlink:href="#ygc200_0" transform="matrix(-0.564958 -0.493277 0.493277 -0.564958 336.117 -39.7389)" style="pointer-events: none;"/></g><g><path fill="none" stroke="rgb(51,102,153)" d="M 376.3599072886795,7.0725124069480785 L 435.80147284897595,104.19852282889615" stroke-opacity="1" stroke-width="1" stroke-linecap="butt" stroke-linejoin="miter" stroke-miterlimit="10"/><use xlink:href="#ygc200_0" transform="matrix(-0.391504 -0.639707 0.639707 -0.391504 437.482 106.945)" style="pointer-events: none;"/></g><g><path fill="none" stroke="rgb(51,102,153)" d="M 7.842317284114202,-8.6749084872678 L -38.268251426755285,127.12720250762159" stroke-opacity="1" stroke-width="1" stroke-linecap="butt" stroke-linejoin="miter" stroke-miterlimit="10"/><use xlink:href="#ygc200_0" transform="matrix(0.241136 -0.710178 0.710178 0.241136 -39.3034 130.176)" style="pointer-events: none;"/></g><g><path fill="none" stroke="rgb(51,102,153)" d="M 23.75,135.54497849039495 L 322.7381850301023,-0.5737354320025461" stroke-opacity="1" stroke-width="1" stroke-linecap="butt" stroke-linejoin="miter" stroke-miterlimit="10"/><use xlink:href="#ygc200_0" transform="matrix(-0.68259 0.310759 -0.310759 -0.68259 325.668 -1.90779)" style="pointer-events: none;"/></g><g><path fill="none" stroke="rgb(51,102,153)" d="M -93.56000511770725,131.625 L -192.8626140344802,70.29842040980583" stroke-opacity="1" stroke-width="1" stroke-linecap="butt" stroke-linejoin="miter" stroke-miterlimit="10"/><use xlink:href="#ygc200_0" transform="matrix(0.63812 0.394085 -0.394085 0.63812 -195.602 68.6067)" style="pointer-events: none;"/></g><g><path fill="none" stroke="rgb(51,102,153)" d="M -104,160.76986434108528 L -197.72248346802536,155.11330249279362" stroke-opacity="1" stroke-width="1" stroke-linecap="butt" stroke-linejoin="miter" stroke-miterlimit="10"/><use xlink:href="#ygc200_0" transform="matrix(0.748638 0.0451836 -0.0451836 0.748638 -200.936 154.919)" style="pointer-events: none;"/></g><g><path fill="none" stroke="rgb(51,102,153)" d="M -104,187.4052303751783 L -292.75,254.72058823529412 L -296.74544426881147,254.72058823529412" stroke-opacity="1" stroke-width="1" stroke-linecap="butt" stroke-linejoin="miter" stroke-miterlimit="10"/><use xlink:href="#ygc200_0" transform="matrix(0.75 0 0 0.75 -299.965 254.721)" style="pointer-events: none;"/></g><g><path fill="none" stroke="rgb(51,102,153)" d="M -77.48221596724667,197.625 L -142.5974481337754,255.14541756482691" stroke-opacity="1" stroke-width="1" stroke-linecap="butt" stroke-linejoin="miter" stroke-miterlimit="10"/><use xlink:href="#ygc200_0" transform="matrix(0.562096 -0.496536 0.496536 0.562096 -145.01 257.277)" style="pointer-events: none;"/></g><g><path fill="none" stroke="rgb(51,102,153)" d="M -40.125,197.625 L -40.125,249" stroke-opacity="1" stroke-width="1" stroke-linecap="butt" stroke-linejoin="miter" stroke-miterlimit="10"/><use xlink:href="#ygc200_0" transform="matrix(0 -0.75 0.75 0 -40.125 252.22)" style="pointer-events: none;"/></g><g><path fill="none" stroke="rgb(51,102,153)" d="M -14.454121760208828,197.625 L 31.443414581148666,256.6264367688076" stroke-opacity="1" stroke-width="1" stroke-linecap="butt" stroke-linejoin="miter" stroke-miterlimit="10"/><use xlink:href="#ygc200_0" transform="matrix(-0.460503 -0.591977 0.591977 -0.460503 33.4203 259.168)" style="pointer-events: none;"/></g><g><path fill="none" stroke="rgb(51,102,153)" d="M 23.75,170.92592243975903 L 58.43393355431499,174.34730443946933" stroke-opacity="1" stroke-width="1" stroke-linecap="butt" stroke-linejoin="miter" stroke-miterlimit="10"/><use xlink:href="#ygc200_0" transform="matrix(-0.746377 -0.0736261 0.0736261 -0.746377 61.6381 174.663)" style="pointer-events: none;"/></g><g><path fill="none" stroke="rgb(51,102,153)" d="M 401.0947032838807,174.25 L 342.5313986219802,225.4033582799564" stroke-opacity="1" stroke-width="1" stroke-linecap="butt" stroke-linejoin="miter" stroke-miterlimit="10"/><use xlink:href="#ygc200_0" transform="matrix(0.56486 -0.493389 0.493389 0.56486 340.107 227.521)" style="pointer-events: none;"/></g><g><path fill="none" stroke="rgb(51,102,153)" d="M 458.4197574595766,174.25 L 488.13833212317434,224.42780169066222" stroke-opacity="1" stroke-width="1" stroke-linecap="butt" stroke-linejoin="miter" stroke-miterlimit="10"/><use xlink:href="#ygc200_0" transform="matrix(-0.382196 -0.645311 0.645311 -0.382196 489.779 227.198)" style="pointer-events: none;"/></g><g><path fill="none" stroke="rgb(51,102,153)" d="M 502.75,151.1152496099844 L 533.2473023806715,155.8254413973268" stroke-opacity="1" stroke-width="1" stroke-linecap="butt" stroke-linejoin="miter" stroke-miterlimit="10"/><use xlink:href="#ygc200_0" transform="matrix(-0.741212 -0.114477 0.114477 -0.741212 536.429 156.317)" style="pointer-events: none;"/></g><g><path d="M 32,-282.5 L 159.75,-282.5 L 159.75,-216.5 L 32,-216.5 Z" stroke="rgb(0,0,0)" stroke-opacity="1" stroke-width="1" stroke-linecap="butt" stroke-linejoin="miter" stroke-miterlimit="10" fill="rgb(254,254,254)" fill-opacity="1"/></g><g><path d="M 179.6952071290944,-67 C 144.4234321290944,-67 115.8202071290944,-81.7774 115.8202071290944,-100 C 115.8202071290944,-118.2226 144.4234321290944,-133 179.6952071290944,-133 C 214.9669821290944,-133 243.5702071290944,-118.2226 243.5702071290944,-100 C 243.5702071290944,-81.7774 214.9669821290944,-67 179.6952071290944,-67 Z" stroke="rgb(0,0,0)" stroke-opacity="1" stroke-width="1" stroke-linecap="butt" stroke-linejoin="miter" stroke-miterlimit="10" fill="rgb(255,255,255)" fill-opacity="1"/></g><g><path d="M 17.375,-69.75 L 81.25,-36.75 L 17.375,-3.75 L -46.5,-36.75 Z" stroke="rgb(0,0,0)" stroke-opacity="1" stroke-width="1" stroke-linecap="butt" stroke-linejoin="miter" stroke-miterlimit="10" fill="rgb(255,255,255)" fill-opacity="1"/></g><g><path d="M 375,108.25 L 502.75,108.25 L 502.75,174.25 L 375,174.25 Z" stroke="rgb(0,0,0)" stroke-opacity="1" stroke-width="1" stroke-linecap="butt" stroke-linejoin="miter" stroke-miterlimit="10" fill="rgb(254,254,254)" fill-opacity="1"/></g><g><path d="M -104,131.625 L 23.75,131.625 L 23.75,197.625 L -104,197.625 Z" stroke="rgb(0,0,0)" stroke-opacity="1" stroke-width="1" stroke-linecap="butt" stroke-linejoin="miter" stroke-miterlimit="10" fill="rgb(254,254,254)" fill-opacity="1"/></g><g><path d="M 322.125,-170 C 286.853225,-170 258.25,-184.7774 258.25,-203 C 258.25,-221.2226 286.853225,-236 322.125,-236 C 357.396775,-236 386,-221.2226 386,-203 C 386,-184.7774 357.396775,-170 322.125,-170 Z" stroke="rgb(0,0,0)" stroke-opacity="1" stroke-width="1" stroke-linecap="butt" stroke-linejoin="miter" stroke-miterlimit="10" fill="rgb(255,255,255)" fill-opacity="1"/></g><g><path d="M 361.0154142581888,-51 L 424.8904142581888,-18 L 361.0154142581888,15 L 297.1404142581888,-18 Z" stroke="rgb(0,0,0)" stroke-opacity="1" stroke-width="1" stroke-linecap="butt" stroke-linejoin="miter" stroke-miterlimit="10" fill="rgb(255,255,255)" fill-opacity="1"/></g><g><path d="M -316.625,319.75 C -351.896775,319.75 -380.5,304.9726 -380.5,286.75 C -380.5,268.5274 -351.896775,253.75 -316.625,253.75 C -281.353225,253.75 -252.75,268.5274 -252.75,286.75 C -252.75,304.9726 -281.353225,319.75 -316.625,319.75 Z" stroke="rgb(0,0,0)" stroke-opacity="1" stroke-width="1" stroke-linecap="butt" stroke-linejoin="miter" stroke-miterlimit="10" fill="rgb(255,255,255)" fill-opacity="1"/></g><g><path d="M 125.875,214 C 90.60322500000001,214 62,199.2226 62,181 C 62,162.7774 90.60322500000001,148 125.875,148 C 161.146775,148 189.75,162.7774 189.75,181 C 189.75,199.2226 161.146775,214 125.875,214 Z" stroke="rgb(0,0,0)" stroke-opacity="1" stroke-width="1" stroke-linecap="butt" stroke-linejoin="miter" stroke-miterlimit="10" fill="rgb(255,255,255)" fill-opacity="1"/></g><g><path d="M -178.375,319.75 C -213.646775,319.75 -242.25,304.9726 -242.25,286.75 C -242.25,268.5274 -213.646775,253.75 -178.375,253.75 C -143.103225,253.75 -114.5,268.5274 -114.5,286.75 C -114.5,304.9726 -143.103225,319.75 -178.375,319.75 Z" stroke="rgb(0,0,0)" stroke-opacity="1" stroke-width="1" stroke-linecap="butt" stroke-linejoin="miter" stroke-miterlimit="10" fill="rgb(255,255,255)" fill-opacity="1"/></g><g><path d="M 98.125,294.5 C 62.853225,294.5 34.25,279.7226 34.25,261.5 C 34.25,243.2774 62.853225,228.5 98.125,228.5 C 133.396775,228.5 162,243.2774 162,261.5 C 162,279.7226 133.396775,294.5 98.125,294.5 Z" stroke="rgb(0,0,0)" stroke-opacity="1" stroke-width="1" stroke-linecap="butt" stroke-linejoin="miter" stroke-miterlimit="10" fill="rgb(255,255,255)" fill-opacity="1"/></g><g><path d="M -40.125,319.75 C -75.39677499999999,319.75 -104,304.9726 -104,286.75 C -104,268.5274 -75.39677499999999,253.75 -40.125,253.75 C -4.853225000000002,253.75 23.75,268.5274 23.75,286.75 C 23.75,304.9726 -4.853225000000002,319.75 -40.125,319.75 Z" stroke="rgb(0,0,0)" stroke-opacity="1" stroke-width="1" stroke-linecap="butt" stroke-linejoin="miter" stroke-miterlimit="10" fill="rgb(255,255,255)" fill-opacity="1"/></g><g><path d="M -237.875,75.5 C -273.146775,75.5 -301.75,60.7226 -301.75,42.5 C -301.75,24.2774 -273.146775,9.5 -237.875,9.5 C -202.603225,9.5 -174,24.2774 -174,42.5 C -174,60.7226 -202.603225,75.5 -237.875,75.5 Z" stroke="rgb(0,0,0)" stroke-opacity="1" stroke-width="1" stroke-linecap="butt" stroke-linejoin="miter" stroke-miterlimit="10" fill="rgb(255,255,255)" fill-opacity="1"/></g><g><path d="M -265.875,184 C -301.146775,184 -329.75,169.2226 -329.75,151 C -329.75,132.7774 -301.146775,118 -265.875,118 C -230.603225,118 -202,132.7774 -202,151 C -202,169.2226 -230.603225,184 -265.875,184 Z" stroke="rgb(0,0,0)" stroke-opacity="1" stroke-width="1" stroke-linecap="butt" stroke-linejoin="miter" stroke-miterlimit="10" fill="rgb(255,255,255)" fill-opacity="1"/></g><g><path d="M 599.125,199 C 563.853225,199 535.25,184.2226 535.25,166 C 535.25,147.7774 563.853225,133 599.125,133 C 634.396775,133 663,147.7774 663,166 C 663,184.2226 634.396775,199 599.125,199 Z" stroke="rgb(0,0,0)" stroke-opacity="1" stroke-width="1" stroke-linecap="butt" stroke-linejoin="miter" stroke-miterlimit="10" fill="rgb(255,255,255)" fill-opacity="1"/></g><g><path d="M 337.875,294.5 C 302.603225,294.5 274,279.7226 274,261.5 C 274,243.2774 302.603225,228.5 337.875,228.5 C 373.146775,228.5 401.75,243.2774 401.75,261.5 C 401.75,279.7226 373.146775,294.5 337.875,294.5 Z" stroke="rgb(0,0,0)" stroke-opacity="1" stroke-width="1" stroke-linecap="butt" stroke-linejoin="miter" stroke-miterlimit="10" fill="rgb(255,255,255)" fill-opacity="1"/></g><g><path d="M 491.125,294.5 C 455.853225,294.5 427.25,279.7226 427.25,261.5 C 427.25,243.2774 455.853225,228.5 491.125,228.5 C 526.396775,228.5 555,243.2774 555,261.5 C 555,279.7226 526.396775,294.5 491.125,294.5 Z" stroke="rgb(0,0,0)" stroke-opacity="1" stroke-width="1" stroke-linecap="butt" stroke-linejoin="miter" stroke-miterlimit="10" fill="rgb(255,255,255)" fill-opacity="1"/></g><g><path d="M 3.75,-172.125 L 31,-172.125 L 31,-144.125 L 3.75,-144.125 Z" stroke="rgb(246,246,246)" stroke-opacity="1" stroke-width="1" stroke-linecap="butt" stroke-linejoin="miter" stroke-miterlimit="10" fill="rgb(254,254,254)" fill-opacity="1"/></g><g><path d="M 123.25,26.5 L 150.5,26.5 L 150.5,54.5 L 123.25,54.5 Z" stroke="rgb(246,246,246)" stroke-opacity="1" stroke-width="1" stroke-linecap="butt" stroke-linejoin="miter" stroke-miterlimit="10" fill="rgb(254,254,254)" fill-opacity="1"/></g><g><path d="M 424.8904142581888,26.5 L 452.1404142581888,26.5 L 452.1404142581888,54.5 L 424.8904142581888,54.5 Z" stroke="rgb(246,246,246)" stroke-opacity="1" stroke-width="1" stroke-linecap="butt" stroke-linejoin="miter" stroke-miterlimit="10" fill="rgb(254,254,254)" fill-opacity="1"/></g><g><path d="M 291,-127.125 L 318.25,-127.125 L 318.25,-99.125 L 291,-99.125 Z" stroke="rgb(246,246,246)" stroke-opacity="1" stroke-width="1" stroke-linecap="butt" stroke-linejoin="miter" stroke-miterlimit="10" fill="rgb(254,254,254)" fill-opacity="1"/></g><g><path d="M -53.75,49.9375 L -26.5,49.9375 L -26.5,77.9375 L -53.75,77.9375 Z" stroke="rgb(246,246,246)" stroke-opacity="1" stroke-width="1" stroke-linecap="butt" stroke-linejoin="miter" stroke-miterlimit="10" fill="rgb(254,254,254)" fill-opacity="1"/></g><g transform="translate(32 -282.5)"><text font-family="Arial" font-size="12px" font-style="normal" font-weight="normal" text-anchor="middle" fill="rgb(0,0,0)" fill-opacity="1" transform="translate(63.875 26)"><tspan dy="0.9166666666666666em" x="0">Genre</tspan></text></g><g transform="translate(115.8202071290944 -133)"><text font-family="Arial" font-size="12px" font-style="normal" font-weight="normal" text-anchor="middle" fill="rgb(0,0,0)" fill-opacity="1" transform="translate(63.875 26)"><tspan dy="0.9166666666666666em" x="0">genreType</tspan></text></g><g transform="translate(-46.5 -69.75)"><text font-family="Arial" font-size="12px" font-style="normal" font-weight="normal" text-anchor="middle" fill="rgb(0,0,0)" fill-opacity="1" transform="translate(63.875 26)"><tspan dy="0.9166666666666666em" x="0">have</tspan></text></g><g transform="translate(375 108.25)"><text font-family="Arial" font-size="12px" font-style="normal" font-weight="normal" text-anchor="middle" fill="rgb(0,0,0)" fill-opacity="1" transform="translate(63.875 26)"><tspan dy="0.9166666666666666em" x="0">bookGenres</tspan></text></g><g transform="translate(-104 131.625)"><text font-family="Arial" font-size="12px" font-style="normal" font-weight="normal" text-anchor="middle" fill="rgb(0,0,0)" fill-opacity="1" transform="translate(63.875 26)"><tspan dy="0.9166666666666666em" x="0">Book</tspan></text></g><g transform="translate(258.25 -236)"><text font-family="Arial" font-size="12px" font-style="normal" font-weight="normal" text-decoration="underline" text-anchor="middle" fill="rgb(0,0,0)" fill-opacity="1" transform="translate(63.875 26)"><tspan dy="0.9166666666666666em" x="0">genreId</tspan></text></g><g transform="translate(297.1404142581888 -51)"><text font-family="Arial" font-size="12px" font-style="normal" font-weight="normal" text-anchor="middle" fill="rgb(0,0,0)" fill-opacity="1" transform="translate(63.875 26)"><tspan dy="0.9166666666666666em" x="0">have</tspan></text></g><g transform="translate(-380.5 253.75)"><text font-family="Arial" font-size="12px" font-style="normal" font-weight="normal" text-anchor="middle" fill="rgb(0,0,0)" fill-opacity="1" transform="translate(63.875 26)"><tspan dy="0.9166666666666666em" x="0">bookAuthor</tspan></text></g><g transform="translate(62 148)"><text font-family="Arial" font-size="12px" font-style="normal" font-weight="normal" text-anchor="middle" fill="rgb(0,0,0)" fill-opacity="1" transform="translate(63.875 26)"><tspan dy="0.9166666666666666em" x="0">bookTitle</tspan></text></g><g transform="translate(-242.25 253.75)"><text font-family="Arial" font-size="12px" font-style="normal" font-weight="normal" text-anchor="middle" fill="rgb(0,0,0)" fill-opacity="1" transform="translate(63.875 26)"><tspan dy="0.9166666666666666em" x="0">bookDescription</tspan></text></g><g transform="translate(34.25 228.5)"><text font-family="Arial" font-size="12px" font-style="normal" font-weight="normal" text-anchor="middle" fill="rgb(0,0,0)" fill-opacity="1" transform="translate(63.875 26)"><tspan dy="0.9166666666666666em" x="0">bookPublishDate</tspan></text></g><g transform="translate(-104 253.75)"><text font-family="Arial" font-size="12px" font-style="normal" font-weight="normal" text-anchor="middle" fill="rgb(0,0,0)" fill-opacity="1" transform="translate(63.875 26)"><tspan dy="0.9166666666666666em" x="0">bookPages</tspan></text></g><g transform="translate(-301.75 9.5)"><text font-family="Arial" font-size="12px" font-style="normal" font-weight="normal" text-decoration="underline" text-anchor="middle" fill="rgb(0,0,0)" fill-opacity="1" transform="translate(63.875 26)"><tspan dy="0.9166666666666666em" x="0">bookId</tspan></text></g><g transform="translate(-329.75 118)"><text font-family="Arial" font-size="12px" font-style="normal" font-weight="normal" text-decoration="underline" text-anchor="middle" fill="rgb(0,0,0)" fill-opacity="1" transform="translate(63.875 26)"><tspan dy="0.9166666666666666em" x="0">bookGenreId</tspan></text></g><g transform="translate(535.25 133)"><text font-family="Arial" font-size="12px" font-style="normal" font-weight="normal" text-decoration="underline" text-anchor="middle" fill="rgb(0,0,0)" fill-opacity="1" transform="translate(63.875 26)"><tspan dy="0.9166666666666666em" x="0">bookGenresGenreId</tspan></text></g><g transform="translate(274 228.5)"><text font-family="Arial" font-size="12px" font-style="normal" font-weight="normal" text-decoration="underline" text-anchor="middle" fill="rgb(0,0,0)" fill-opacity="1" transform="translate(63.875 26)"><tspan dy="0.9166666666666666em" x="0">bookGenresId</tspan></text></g><g transform="translate(427.25 228.5)"><text font-family="Arial" font-size="12px" font-style="normal" font-weight="normal" text-decoration="underline" text-anchor="middle" fill="rgb(0,0,0)" fill-opacity="1" transform="translate(63.875 26)"><tspan dy="0.9166666666666666em" x="0">bookGenresBookId</tspan></text></g><g transform="translate(3.75 -172.125)"><text font-family="Arial" font-size="12px" font-style="normal" font-weight="normal" text-anchor="middle" fill="rgb(0,0,0)" fill-opacity="1" transform="translate(13.625 7)"><tspan dy="0.9166666666666666em" x="0">1</tspan></text></g><g transform="translate(123.25 26.5)"><text font-family="Arial" font-size="12px" font-style="normal" font-weight="normal" text-anchor="middle" fill="rgb(0,0,0)" fill-opacity="1" transform="translate(13.625 7)"><tspan dy="0.9166666666666666em" x="0">m</tspan></text></g><g transform="translate(424.8904142581888 26.5)"><text font-family="Arial" font-size="12px" font-style="normal" font-weight="normal" text-anchor="middle" fill="rgb(0,0,0)" fill-opacity="1" transform="translate(13.625 7)"><tspan dy="0.9166666666666666em" x="0">n</tspan></text></g><g transform="translate(291 -127.125)"><text font-family="Arial" font-size="12px" font-style="normal" font-weight="normal" text-anchor="middle" fill="rgb(0,0,0)" fill-opacity="1" transform="translate(13.625 7)"><tspan dy="0.9166666666666666em" x="0">m</tspan></text></g><g transform="translate(-53.75 49.9375)"><text font-family="Arial" font-size="12px" font-style="normal" font-weight="normal" text-anchor="middle" fill="rgb(0,0,0)" fill-opacity="1" transform="translate(13.625 7)"><tspan dy="0.9166666666666666em" x="0">n</tspan></text></g></g></svg>